<svg xmlns="http://www.w3.org/2000/svg" xmlns:xlink="http://www.w3.org/1999/xlink" viewBox="0,0,256,256" width="128px" height="128px" fill-rule="nonzero"><g fill-opacity="0" fill="#dddddd" fill-rule="nonzero" stroke="none" stroke-width="1" stroke-linecap="butt" stroke-linejoin="miter" stroke-miterlimit="10" stroke-dasharray="" stroke-dashoffset="0" font-family="none" font-weight="none" font-size="none" text-anchor="none" style="mix-blend-mode: normal"><path d="M0,256v-256h256v256z" id="bgRectangle"></path></g><g fill="#ffffff" fill-rule="nonzero" stroke="none" stroke-width="1" stroke-linecap="butt" stroke-linejoin="miter" stroke-miterlimit="10" stroke-dasharray="" stroke-dashoffset="0" font-family="none" font-weight="none" font-size="none" text-anchor="none" style="mix-blend-mode: normal"><g transform="scale(16,16)"><path d="M7.5,1c-3.58594,0 -6.5,2.91406 -6.5,6.5c0,3.58594 2.91406,6.5 6.5,6.5c3.58594,0 6.5,-2.91406 6.5,-6.5c0,-3.58594 -2.91406,-6.5 -6.5,-6.5zM11.14453,3.39453c0.51563,0.45703 0.94531,1.01172 1.26172,1.62891c0.01172,0.125 0.02344,0.24219 0.02344,0.375c0,0.56641 -0.10547,1.20313 -0.42578,2l-1.66016,4.80078c-0.32031,0.19531 -0.66797,0.35938 -1.03125,0.48828c0,-0.00391 0,-0.00391 0,-0.00391l-1.71484,-4.69922l-1.64453,4.78906c-0.32422,-0.09375 -0.63281,-0.21875 -0.92969,-0.36719l-2.57812,-7.07031c0.13672,-0.3125 0.29688,-0.61328 0.48828,-0.89844c0.09375,0.00391 0.1875,0.00781 0.26563,0.00781c0.58203,0 1.48828,-0.07031 1.48828,-0.07031c0.30078,-0.01953 0.33594,0.42188 0.03516,0.45703c0,0 -0.30078,0.03516 -0.63672,0.05469l2.02734,6.03906l1.22266,-3.66016l-0.86719,-2.38281c-0.30469,-0.01562 -0.58594,-0.05078 -0.58594,-0.05078c-0.30469,-0.01953 -0.26562,-0.47656 0.03125,-0.45703c0,0 0.92188,0.07031 1.46875,0.07031c0.58594,0 1.48438,-0.07031 1.48438,-0.07031c0.30469,-0.01953 0.33984,0.42188 0.03906,0.45703c0,0 -0.30469,0.03516 -0.64062,0.05469l2.01563,5.99219l0.55859,-1.85937c0.28125,-0.72266 0.42578,-1.32422 0.42578,-1.80078c0,-0.6875 -0.24609,-1.16797 -0.46094,-1.53906c-0.28125,-0.45703 -0.55078,-0.84766 -0.55078,-1.30469c0,-0.5 0.37109,-0.95312 0.89063,-0.98047z"></path></g></g></svg>